# AST/ASF file generated using VICON BodyLanguage
# -----------------------------------------------
:version 1.10
:name VICON
:units
  mass 1.0
  length 0.45
  angle deg
:documentation
   .ast/.asf automatically generated from VICON data using
   VICON BodyBuilder and BodyLanguage model FoxedUp or BRILLIANT.MOD
:root
   order TX TY TZ RX RY RZ
   axis XYZ
   position 0 0 0  
   orientation 0 0 0 
:bonedata
  begin
     id 1 
     name lhipjoint
     direction 0.523584 -0.783993 0.333487 
     length 2.44404 
     axis 0 0 0  XYZ
  end
  begin
     id 2 
     name lfemur
     direction 0.34202 -0.939693 0  
     length 7.29523  
     axis 0 0 20  XYZ
    dof rx ry rz
    limits (-160.0 20.0)
           (-70.0 70.0)
           (-60.0 70.0)
  end
  begin
     id 3 
     name ltibia
     direction 0.34215 -0.939645 0   
     length 7.81194   
     axis 0 0 20   XYZ
    dof rx
    limits (-10.0 170.0)
  end
  begin
     id 4 
     name lfoot
     direction 0.0941847 -0.25877 0.961336   
     length 2.41437   
     axis -90 7.62852e-016 20   XYZ
    dof rx rz
    limits (-45.0 90.0)
           (-70.0 20.0)
  end
  begin
     id 5 
     name ltoes
     direction 1.53526e-011 -4.21768e-011 1   
     length 1.2048   
     axis -90 7.62852e-016 20   XYZ
    dof rx
    limits (-90.0 20.0)
  end
  begin
     id 6 
     name rhipjoint
     direction -0.46599 -0.814191 0.346332   
     length 2.35339  
     axis 0 0 0  XYZ 
  end
  begin
     id 7 
     name rfemur
     direction -0.34202 -0.939693 0   
     length 7.34966   
     axis 0 0 -20   XYZ
    dof rx ry rz
    limits (-160.0 20.0)
           (-70.0 70.0)
           (-70.0 60.0)
  end
  begin
     id 8 
     name rtibia
     direction -0.34202 -0.939693 0   
     length 7.89934   
     axis 0 0 -20   XYZ
    dof rx
    limits (-10.0 170.0)
 end
 begin
     id 9 
     name rfoot
     direction -0.0975468 -0.268008 0.958466   
     length 2.27725  
     axis -90 -7.62852e-016 -20   XYZ
    dof rx rz
    limits (-45.0 90.0)
           (-20.0 70.0)
  end
  begin
     id 10 
     name rtoes
     direction -1.53563e-011 -4.22022e-011 1   
     length 1.13683   
     axis -90 -7.62852e-016 -20   XYZ
    dof rx
    limits (-90.0 20.0)
  end
  begin
     id 11 
     name lowerback
     direction -0.00456414 0.999242 -0.0386661   
     length 2.16968   
     axis 0 0 0   XYZ
    dof rx ry rz
    limits (-20.0 45.0)
           (-30.0 30.0)
           (-30.0 30.0)
  end
  begin
     id 12 
     name upperback
     direction 0.0297078 0.998988 0.0337799   
     length 2.15674   
     axis 0 0 0   XYZ
    dof rx ry rz
    limits (-20.0 45.0)
           (-30.0 30.0)
           (-30.0 30.0)
  end
  begin
     id 13 
     name thorax
     direction 0.0309305 0.998202 0.0513506   
     length 2.16319   
     axis 0 0 0   XYZ
    dof rx ry rz
    limits (-20.0 45.0)
           (-30.0 30.0)
           (-30.0 30.0)
  end
  begin
     id 14 
     name lowerneck
     direction -0.103039 0.983474 0.148872   
     length 1.64318   
     axis 0 0 0   XYZ
    dof rx ry rz
    limits (-20.0 45.0)
           (-30.0 30.0)
           (-30.0 30.0)
  end
  begin
     id 15 
     name upperneck
     direction 0.128124 0.971079 -0.201469   
     length 1.68242   
     axis 0 0 0   XYZ
    dof rx ry rz
    limits (-20.0 45.0)
           (-30.0 30.0)
           (-30.0 30.0)
  end
  begin
     id 16
     name head
     direction 0.0496365 0.994919 -0.0875941  
     length 1.70108  
     axis 0 0 0   XYZ
    dof rx ry rz
    limits (-20.0 45.0)
           (-30.0 30.0)
           (-30.0 30.0)
  end
  begin
     id 17 
     name lclavicle
     direction 0.887148 0.430222 -0.166967  
     length 3.25763  
     axis 0 0 0   XYZ
    dof ry rz
    limits (-20.0 10.0)
           (0.0 20.0)
  end
  begin
     id 18 
     name lhumerus
     direction 1 -4.48962e-011 1.92156e-027   
     length 5.10755   
     axis 180 -30 -90   XYZ
    dof rx ry rz
    limits (-60.0 90.0)
           (-90.0 90.0)
           (-90.0 90.0)
  end
  begin
     id 19
     name lradius
     direction 1 -4.48958e-011 7.10963e-027   
     length 3.36253   
     axis 180 -30 -90   XYZ
    dof rx
    limits (-10.0 170.0)
  end
  begin
     id 20
     name lwrist
     direction 1 -4.48946e-011 1.82396e-026   
     length 1.68127   
     axis -1.15222e-014 90 90   XYZ
    dof ry
    limits (-180.0 0.0)
 end
  begin
     id 21 
     name lhand
     direction 1 -4.48919e-011 3.64759e-026   
     length 0.619088   
     axis -2.32787e-014 90 90   XYZ
    dof rx rz
    limits (-90.0 90.0)
           (-45.0 45.0)
  end
  begin
     id 22 
     name lfingers
     direction 1 -4.49012e-011 7.29744e-026   
     length 0.499125   
     axis -4.6558e-014 90 90   XYZ
    dof rx
    limits (0.0 90.0)
  end
  begin
     id 23
     name lthumb
     direction 0.707107 -6.35028e-011 0.707107   
     length 0.716646   
     axis -90 45 3.78391e-014   XYZ
    dof rx rz
    limits (-45.0 45.0)
           (-45.0 45.0)
  end
  begin
     id 24 
     name rclavicle
     direction -0.82886 0.533198 -0.169384   
     length 3.20647  
     axis 0 0 0   XYZ 
    dof ry rz
    limits (-10.0 20.0)
           (-20.0 0.0)
  end
  begin
     id 25 
     name rhumerus
     direction -1 -4.48973e-011 3.06863e-027  
     length 5.27387   
     axis 180 30 90   XYZ
    dof rx ry rz
    limits (-90.0 60.0)
           (-90.0 90.0)
           (-90.0 90.0)
  end
  begin
     id 26 
     name rradius
     direction -1 -4.48988e-011 9.4797e-027   
     length 3.40144   
     axis 180 30 90   XYZ
    dof rx
    limits (-10.0 170.0)
  end
  begin
     id 27 
     name rwrist
     direction -1 -4.48897e-011 1.82366e-026   
     length 1.70072   
     axis -1.15222e-014 -90 -90   XYZ
    dof ry
    limits (-180.0 0.0)
  end
  begin
     id 28
     name rhand
     direction -1 -4.48965e-011 3.64815e-026   
     length 0.742821   
     axis -2.32787e-014 -90 -90   XYZ
    dof rx rz
    limits (-90.0 90.0)
           (-45.0 45.0)
  end
  begin
     id 29
     name rfingers
     direction -1 -4.49016e-011 7.29754e-026   
     length 0.598881   
     axis -4.6558e-014 -90 -90   XYZ
    dof rx
    limits (0.0 90.0)
  end
  begin
     id 30
     name rthumb
     direction -0.707107 -6.3488e-011 0.707107   
     length 0.859877   
     axis -90 -45 -3.78391e-014   XYZ
    dof rx rz
    limits (-45.0 45.0)
           (-45.0 45.0)
  end
:hierarchy
  begin
    root lhipjoint rhipjoint lowerback
    lhipjoint lfemur
    lfemur ltibia
    ltibia lfoot
    lfoot ltoes
    rhipjoint rfemur
    rfemur rtibia
    rtibia rfoot
    rfoot rtoes
    lowerback upperback
    upperback thorax
    thorax lowerneck lclavicle rclavicle
    lowerneck upperneck
    upperneck head
    lclavicle lhumerus
    lhumerus lradius
    lradius lwrist
    lwrist lhand lthumb
    lhand lfingers
    rclavicle rhumerus
    rhumerus rradius
    rradius rwrist
    rwrist rhand rthumb
    rhand rfingers
  end

#!OML:ASF F:\Work\Patient Classification 1\justin\Session 1\justin.ASF
:FULLY-SPECIFIED
:DEGREES
1130
root -7.71976 18.1871 -0.647656 179.165 12.5315 -181.996
lowerback 11.5909 -0.433274 -6.29263
upperback 2.09731 -1.02298 2.66349
thorax -4.12522 -0.331702 6.52661
lowerneck -15.9535 -7.65147 -14.7532
upperneck 35.3068 -7.27228 8.54868
head 16.3165 -3.06633 5.19023
rclavicle 4.72114e-014 5.56597e-015
rhumerus -33.4729 -7.62215 -79.4674
rradius 35.4066
rwrist -1.33306
rhand -23.4728 14.6723
rfingers 7.12502
rthumb 2.98646 -15.2865
lclavicle 4.72114e-014 5.56597e-015
lhumerus -32.1278 6.06856 78.6194
lradius 45.7277
lwrist 9.88467
lhand -17.3424 30.8692
lfingers 7.12502
lthumb 8.90496 60.6613
rfemur -22.8762 -0.664108 12.8351
rtibia 22.6946
rfoot -3.09796 -10.8307
rtoes -13.5788
lfemur 8.036 5.27813 -18.9125
ltibia 19.7776
lfoot -12.3887 3.54238
ltoes -33.1851
1131
root -7.66024 18.1865 -0.754188 179.156 12.7004 -181.751
lowerback 11.6496 -0.410099 -6.13291
upperback 2.12311 -0.962786 2.79412
thorax -4.14053 -0.300619 6.56721
lowerneck -15.9368 -7.66168 -14.9231
upperneck 35.3352 -7.25285 8.61664
head 16.3397 -3.07219 5.25745
rclavicle -4.96962e-015 -2.38542e-014
rhumerus -33.5731 -7.53917 -79.4544
rradius 35.3354
rwrist -0.976245
rhand -23.1725 14.5881
rfingers 7.12502
rthumb 3.27651 -15.3665
lclavicle -4.96962e-015 -2.38542e-014
lhumerus -31.8762 5.76064 78.5754
lradius 45.9709
lwrist 10.0693
lhand -17.3672 30.1683
lfingers 7.12502
lthumb 8.88098 59.9615
rfemur -22.6031 0.161924 13.0116
rtibia 21.8064
rfoot -3.38586 -10.0159
rtoes -15.1761
lfemur 8.51782 5.06529 -18.5105
ltibia 19.6255
lfoot -12.1345 3.64331
ltoes -33.3879
1132
root -7.60707 18.1806 -0.875226 178.974 12.687 -181.939
lowerback 11.5761 -0.430198 -6.21011
upperback 2.26295 -0.987685 2.73457
thorax -3.94732 -0.32078 6.54643
lowerneck -16.1364 -7.65472 -14.6964
upperneck 35.3477 -7.20802 8.35027
head 16.3573 -3.06109 5.10109
rclavicle -8.05078e-015 -1.27222e-014
rhumerus -33.4982 -7.58641 -79.5245
rradius 35.2062
rwrist -0.535587
rhand -22.9127 13.9943
rfingers 7.12502
rthumb 3.52736 -15.9562
lclavicle -8.05078e-015 -1.27222e-014
lhumerus -31.4975 5.53709 78.4675
lradius 46.2297
lwrist 10.2822
lhand -17.1697 30.8526
lfingers 7.12502
lthumb 9.07162 60.6375
rfemur -22.2798 -0.152805 12.8778
rtibia 21.3704
rfoot -3.7065 -8.43941
rtoes -16.9117
lfemur 9.21689 4.77005 -18.6314
ltibia 19.4262
lfoot -11.6739 3.56354
ltoes -32.9559
1133
root -7.55323 18.1691 -0.991196 178.829 12.751 -182.327
lowerback 11.3807 -0.39097 -6.44873
upperback 2.39614 -0.95318 2.61011
thorax -3.70139 -0.314133 6.53778
lowerneck -16.3565 -7.68765 -14.5703
upperneck 35.4779 -7.20215 8.17593
head 16.4603 -3.06295 5.00618
rclavicle 2.18663e-015 -1.66979e-014
rhumerus -33.4608 -7.78742 -79.5216
rradius 34.9549
rwrist -0.206124
rhand -22.6943 14.0207
rfingers 7.12502
rthumb 3.7383 -15.9262
lclavicle 2.18663e-015 -1.66979e-014
lhumerus -31.2393 5.28513 78.4154
lradius 46.6906
lwrist 10.5289
lhand -17.2546 30.8378
lfingers 7.12502
lthumb 8.9897 60.6263
rfemur -22.1752 -0.695312 12.6263
rtibia 21.31
rfoot -3.93754 -6.68668
rtoes -18.3609
lfemur 9.88001 4.68985 -18.9464
ltibia 19.2086
lfoot -10.9179 3.3186
ltoes -32.9162
1134
root -7.49148 18.1545 -1.09652 178.824 13.04 -182.531
lowerback 11.3223 -0.30384 -6.68053
upperback 2.34879 -0.870693 2.57871
thorax -3.72862 -0.271479 6.62579
lowerneck -16.2425 -7.64771 -14.6007
upperneck 35.578 -7.10158 8.12626
head 16.468 -3.02653 5.01814
rclavicle 3.88624e-014 1.19271e-014
rhumerus -33.7479 -7.71614 -79.5185
rradius 34.8169
rwrist -0.103628
rhand -22.3647 15.1347
rfingers 7.12502
rthumb 4.05663 -14.8064
lclavicle 3.88624e-014 1.19271e-014
lhumerus -31.4163 5.18136 78.3264
lradius 47.2574
lwrist 10.5063
lhand -17.5154 30.0871
lfingers 7.12502
lthumb 8.73799 59.8863
rfemur -22.287 -0.573227 12.6109
rtibia 21.4979
rfoot -3.91399 -5.79421
rtoes -19.8084
lfemur 10.3998 4.68363 -19.0293
ltibia 19.0102
lfoot -10.8258 3.37677
ltoes -33.1097
